HIERARCHY
ROOT Hips
{
  OFFSET 267.745 86.9975 -272.335
  CHANNELS 6 Xposition Yposition Zposition Zrotation Xrotation Yrotation
  JOINT LeftUpLeg
  {
    OFFSET 8.64259 1.95398 -2.38835
    CHANNELS 3 Zrotation Xrotation Yrotation
    JOINT LeftLeg
    {
      OFFSET 43.7702 0 0
      CHANNELS 3 Zrotation Xrotation Yrotation
      JOINT LeftFoot
      {
        OFFSET 40.6238 0 0
        CHANNELS 3 Zrotation Xrotation Yrotation
        JOINT LeftToeBase
        {
          OFFSET 12.7242 0 0
          CHANNELS 3 Zrotation Xrotation Yrotation
          End Site
          {
            OFFSET 0 0 0
          }
        }
      }
    }
  }
  JOINT RightUpLeg
  {
    OFFSET -8.2249 1.95398 -2.59336
    CHANNELS 3 Zrotation Xrotation Yrotation
    JOINT RightLeg
    {
      OFFSET 43.5653 0 0
      CHANNELS 3 Zrotation Xrotation Yrotation
      JOINT RightFoot
      {
        OFFSET 40.6238 0 0
        CHANNELS 3 Zrotation Xrotation Yrotation
        JOINT RightToeBase
        {
          OFFSET 12.7242 0 0
          CHANNELS 3 Zrotation Xrotation Yrotation
          End Site
          {
            OFFSET 0 0 0
          }
        }
      }
    }
  }
  JOINT Spine
  {
    OFFSET 0.165834 0.87714 6.61349
    CHANNELS 3 Zrotation Xrotation Yrotation
    JOINT Spine1
    {
      OFFSET 7.38963 1.71661e-005 0
      CHANNELS 3 Zrotation Xrotation Yrotation
      JOINT Spine2
      {
        OFFSET 11.9445 1.14441e-005 0
        CHANNELS 3 Zrotation Xrotation Yrotation
        JOINT Spine3
        {
          OFFSET 14.7254 4.19617e-005 0
          CHANNELS 3 Zrotation Xrotation Yrotation
          JOINT Spine4
          {
            OFFSET 10.9679 0 0
            CHANNELS 3 Zrotation Xrotation Yrotation
            JOINT RightShoulder
            {
              OFFSET 2.46616 -1.6653 3.69651
              CHANNELS 3 Zrotation Xrotation Yrotation
              JOINT RightArm
              {
                OFFSET 13.0012 0 0
                CHANNELS 3 Zrotation Xrotation Yrotation
                JOINT RightForeArm
                {
                  OFFSET 28.7848 1.52588e-005 0
                  CHANNELS 3 Zrotation Xrotation Yrotation
                  JOINT RightHand
                  {
                    OFFSET 26.5688 1.52588e-005 0
                    CHANNELS 3 Zrotation Xrotation Yrotation
                    End Site
                    {
                      OFFSET 0 0 0
                    }
                  }
                }
              }
            }
            JOINT LeftShoulder
            {
              OFFSET 2.38034 -1.29275 -3.7523
              CHANNELS 3 Zrotation Xrotation Yrotation
              JOINT LeftArm
              {
                OFFSET 16.3182 6.10352e-005 0
                CHANNELS 3 Zrotation Xrotation Yrotation
                JOINT LeftForeArm
                {
                  OFFSET 27.0901 0 0
                  CHANNELS 3 Zrotation Xrotation Yrotation
                  JOINT LeftHand
                  {
                    OFFSET 24.5451 1.52588e-005 0
                    CHANNELS 3 Zrotation Xrotation Yrotation
                    End Site
                    {
                      OFFSET 0 0 0
                    }
                  }
                }
              }
            }
            JOINT Neck
            {
              OFFSET 5.0226 -0.0266342 0
              CHANNELS 3 Zrotation Xrotation Yrotation
              JOINT Head
              {
                OFFSET 6.69364 2.86102e-005 0
                CHANNELS 3 Zrotation Xrotation Yrotation
                End Site
                {
                  OFFSET 0 0 0
                }
              }
            }
          }
        }
      }
    }
  }
}
MOTION
Frames:	12
Frame Time:	0.0416667
-2.43896 11.1192 -56.7621 174.79 0.0998117 176.29 -172.454 2.0648 90.9409 -6.53385 -18.1622 -1.61499 44.3854 -10.1643 -11.5236 17.9869 0.190208 4.8601 174.004 3.28532 82.7325 -7.09686 8.04181 -1.3733 42.676 14.9024 29.8061 15.1196 4.88429 -6.43164 -0.273055 5.6153 -89.7524 15.6438 -0.414971 0.568621 3.97289 -0.389736 0.588393 -18.5623 -0.565363 0.413433 1.45039 -0.565363 0.413435 100.27 -39.7806 -85.5431 31.2925 -24.7252 13.4416 -0.639854 -44.8432 -13.1086 -1.66974 -0.107555 3.62415 -79.3544 -42.6304 94.3449 -26.5573 -0.61953 -0.609559 -7.70542 70.5697 -0.0641261 -4.01585 -0.0772747 -5.38263 23.5353 8.03783 12.5016 -42.4563 7.11755 -10.5106 
-2.47097 11.0867 -56.7781 174.508 0.432288 176.415 -172.369 1.93964 91.1185 -6.749 -18.249 -1.56746 44.2934 -10.2256 -11.8723 17.894 0.208828 4.84421 174.1 2.83815 82.9259 -6.93586 7.86857 -1.44779 42.5325 14.8987 29.3116 15.7938 4.73487 -6.73299 -0.299165 5.65323 -89.7544 15.5685 -0.467837 0.566595 3.89748 -0.442387 0.586518 -18.6378 -0.616854 0.400952 1.37486 -0.616854 0.400948 100.415 -39.2135 -85.3085 31.619 -23.8013 12.9542 -0.716433 -45.9378 -12.6335 -0.999229 -0.0527082 2.59421 -79.3647 -42.1207 94.3104 -27.0412 -0.735562 -0.777474 -7.58638 70.7423 -0.0646791 -3.88972 -0.0751726 -5.46923 23.357 7.86311 12.2651 -42.1888 6.94236 -10.2753 
-2.50574 11.089 -56.7637 174.533 0.300088 176.516 -172.168 2.15822 91.3141 -6.87959 -19.841 -1.72529 44.6036 -10.1087 -12.3233 15.9199 0.77349 2.98661 174.253 2.97093 83.0888 -6.95979 8.22091 -1.53656 42.3832 14.9859 29.5581 15.7917 4.72418 -6.68167 -0.288697 5.66742 -89.7743 15.54 -0.457196 0.525908 3.86904 -0.433609 0.545511 -18.6663 -0.594117 0.364182 1.34639 -0.594118 0.364183 100.461 -39.3661 -85.22 31.3242 -23.8152 12.7199 -1.01244 -46.5212 -12.8453 -0.791833 -0.0392653 2.81846 -79.3913 -42.5043 94.2793 -26.7345 -0.795695 -1.13231 -7.55362 70.7799 -0.0648006 -4.51117 -0.0636809 -5.80454 23.4866 7.8159 12.4374 -41.9203 6.75227 -10.1595 
-2.52402 11.0936 -56.7522 174.428 -0.0453339 176.679 -172.098 2.74035 91.4538 -7.25426 -19.6502 -1.73414 44.5525 -10.241 -12.5366 16.0823 0.691094 3.29072 174.414 3.17757 83.3281 -6.74342 8.39619 -1.54443 42.2957 14.9747 29.391 15.7628 4.70319 -6.54424 -0.293355 5.67976 -89.8055 15.5154 -0.482081 0.466808 3.84439 -0.461072 0.487572 -18.6912 -0.600089 0.300332 1.3215 -0.600092 0.300342 100.484 -39.3914 -85.1763 31.0277 -24.0337 12.1669 -0.912627 -46.3693 -12.8194 -0.786413 -0.0384016 2.94559 -79.3122 -42.9594 94.4255 -26.3267 -0.549896 -1.78082 -7.6913 70.5035 -0.0639169 -4.67286 -0.0603432 -5.87358 24.526 8.15631 12.9382 -42.7638 7.09018 -10.8112 
-2.61419 11.1104 -56.7525 174.093 -0.00351991 176.987 -171.801 3.0219 91.8792 -7.73048 -19.2351 -1.80341 44.731 -10.2732 -12.6446 16.0004 0.738167 3.11976 174.636 2.9794 83.7567 -6.69266 8.83119 -1.6133 42.4318 14.9525 29.3195 15.7004 4.74419 -6.63938 -0.322369 5.75093 -89.8532 15.3731 -0.563752 0.38221 3.70221 -0.546379 0.406644 -18.8337 -0.652556 0.195099 1.17888 -0.652555 0.1951 100.559 -39.4215 -85.0405 30.6766 -23.6388 11.4819 -0.932719 -46.0053 -12.599 -0.914522 -0.0464235 2.23831 -79.3289 -43.5214 94.4164 -25.7713 -0.138938 -2.46645 -7.93247 69.8544 -0.0619392 -4.75975 -0.0608626 -5.82452 25.5939 8.39294 13.2188 -43.275 7.219 -11.059 
-2.62004 11.1048 -56.7626 173.888 -0.329438 177.087 -171.923 3.50413 91.8781 -7.8778 -19.1686 -1.68504 44.7992 -10.2581 -12.7638 15.8069 0.763653 3.08522 174.751 3.24838 83.9061 -6.63679 9.16777 -1.62613 42.3077 15.0292 29.2903 15.7761 4.78733 -6.94593 -0.342248 5.79855 -89.8786 15.2779 -0.615982 0.338231 3.60704 -0.600501 0.365005 -18.9292 -0.689159 0.137452 1.08348 -0.689158 0.137451 100.661 -39.6203 -84.8507 29.9686 -23.9489 10.3456 -0.610847 -45.828 -12.3949 -0.754918 -0.0371032 2.8681 -79.1889 -44.3012 94.6696 -24.9999 0.250009 -3.46703 -8.14253 69.2945 -0.0603348 -4.83194 -0.060763 -5.85252 26.5526 8.6951 13.8783 -43.3315 7.34131 -11.6261 
-2.69046 11.1298 -56.7646 173.528 -0.429338 177.403 -171.727 4.04476 92.2479 -8.52346 -18.3891 -1.69538 44.9054 -10.3482 -12.8189 16.1444 0.698304 3.2366 175.015 3.15521 84.3402 -6.49107 10.0096 -1.75049 42.2402 15.1417 29.5146 15.4189 4.81684 -6.55856 -0.36483 5.87979 -89.941 15.1152 -0.69209 0.222672 3.44441 -0.681622 0.252909 -19.0922 -0.727018 0.00436845 0.92043 -0.727016 0.00435678 100.73 -39.9501 -84.7152 29.1056 -23.9858 9.4372 -0.602202 -45.337 -12.3637 -0.875637 -0.0451009 2.6504 -79.1777 -45.2199 94.7139 -24.1555 0.631111 -4.56716 -8.36372 68.6722 -0.058653 -4.81834 -0.060404 -5.79536 28.0723 9.21735 14.6477 -44.2333 7.71965 -12.3988 
-2.736 11.1283 -56.7356 173.345 -0.703549 177.608 -171.585 4.54085 92.487 -8.86201 -18.1622 -1.75775 44.9883 -10.3804 -12.9071 16.4324 0.655419 3.31556 175.219 3.36194 84.6403 -6.46535 10.0961 -1.77581 42.4353 15.0575 29.1679 15.5529 4.76357 -6.51309 -0.36544 5.96171 -89.999 14.9511 -0.722428 0.109051 3.28035 -0.716927 0.140742 -19.2564 -0.721801 -0.113118 0.756236 -0.721801 -0.113125 100.902 -40.0196 -84.407 28.3389 -24.0962 8.12879 -0.365664 -45.086 -12.0351 -0.849294 -0.0430262 2.607 -79.0898 -46.2515 94.8823 -23.186 1.05774 -5.95996 -8.63615 68.0138 -0.0569798 -4.90331 -0.0598001 -5.80111 28.9351 9.42546 15.7187 -43.5101 7.35684 -12.6582 
-2.76177 11.1367 -56.7405 173.104 -0.904629 177.838 -171.619 5.03402 92.6472 -9.26655 -18.0632 -1.62127 44.9877 -10.4582 -13.25 16.5191 0.619109 3.44094 175.437 3.47669 84.9508 -6.39204 10.8565 -1.88748 42.0881 15.2263 29.4915 15.8611 4.72627 -6.79333 -0.378648 6.06245 -90.0605 14.7493 -0.779373 -0.00827926 3.07859 -0.778975 0.0260361 -19.4583 -0.740849 -0.242145 0.554336 -0.740848 -0.242138 101.025 -40.2364 -84.1823 27.3407 -24.3737 6.71281 -0.174289 -44.6027 -11.9306 -0.834437 -0.042575 2.91239 -78.9817 -47.4272 95.0817 -22.1973 1.09868 -7.44656 -8.64667 67.6091 -0.0560013 -5.11459 -0.0589841 -5.85348 31.399 10.4968 16.8457 -45.5272 8.39221 -14.2865 
-2.82185 11.148 -56.7325 172.877 -1.06913 178.011 -171.524 5.37023 92.8332 -9.43575 -17.4422 -1.64748 45.3141 -10.3336 -13.0054 16.4385 0.551609 3.76636 175.536 3.52751 85.1938 -6.32068 11.078 -1.84953 42.3848 15.1508 29.2186 15.7649 4.76789 -6.84129 -0.379409 6.17228 -90.1105 14.5294 -0.805717 -0.107365 2.8587 -0.809659 -0.0718134 -19.6781 -0.736201 -0.344565 0.334486 -0.736196 -0.344573 101.205 -40.2601 -83.863 26.5679 -24.055 5.21275 -0.119688 -44.6033 -11.6662 -0.540255 -0.0222089 2.56466 -78.9192 -48.564 95.2046 -21.0034 1.6461 -9.03798 -9.0186 66.8086 -0.0541696 -5.22275 -0.057995 -5.87258 32.9855 11.029 17.7135 -45.8913 8.58699 -15.052 
-2.85569 11.1726 -56.7296 172.787 -1.17376 178.236 -171.344 5.67324 93.1154 -9.77536 -17.5122 -1.68921 45.401 -10.3863 -13.2127 16.1862 0.687077 3.2696 175.803 3.54978 85.5301 -6.24724 11.0792 -1.98161 42.2642 15.213 29.0459 16.1295 4.64596 -6.82292 -0.352018 6.2905 -90.1693 14.2924 -0.780373 -0.230856 2.62163 -0.789781 -0.196298 -19.9148 -0.674917 -0.454727 0.0978154 -0.674917 -0.454734 101.44 -40.0905 -83.4481 25.9707 -23.9752 3.60488 0.399777 -44.1531 -11.0779 -0.555205 -0.0234238 2.45685 -79.094 -49.643 94.9602 -19.8954 2.04639 -10.5454 -9.29321 65.9749 -0.0523958 -5.2452 -0.0568708 -5.78805 34.5112 11.5484 18.7118 -46.295 8.7185 -15.8519 
-2.86725 11.2076 -56.7125 172.76 -1.28782 178.432 -171.225 5.96075 93.3085 -10.1214 -17.4561 -1.7159 45.6075 -10.3711 -13.2703 16.3224 0.712284 3.10842 175.911 3.63074 85.7459 -6.24623 11.4176 -1.98807 42.2044 15.2227 29.0262 15.8609 4.59716 -6.2048 -0.322887 6.41628 -90.2353 14.0403 -0.75496 -0.369632 2.36951 -0.770497 -0.336065 -20.1665 -0.608967 -0.579454 -0.153818 -0.608969 -0.57945 101.65 -40.1015 -83.075 24.9711 -24.0006 1.93455 1.00122 -43.1612 -10.5414 -0.789815 -0.0383416 2.23615 -79.1365 -50.9797 94.928 -18.6808 2.15974 -12.2602 -9.48794 65.4079 -0.0512602 -5.24726 -0.0556203 -5.81185 36.5374 12.4059 19.9233 -47.4062 9.17517 -16.9477 
